<svg id="visual" viewBox="0 0 960 540" width="960" height="540" xmlns="http://www.w3.org/2000/svg" xmlns:xlink="http://www.w3.org/1999/xlink" version="1.1"><rect width="960" height="540" fill="#D2B48C"></rect><g><g transform="translate(86 28)"><path d="M0 -50.4L50.4 0L0 50.4L-50.4 0Z" fill="#C1E1C1"></path></g><g transform="translate(282 25)"><path d="M0 -24L24 0L0 24L-24 0Z" fill="#C1E1C1"></path></g><g transform="translate(106 294)"><path d="M0 -43L43 0L0 43L-43 0Z" fill="#C1E1C1"></path></g><g transform="translate(742 246)"><path d="M0 -42L42 0L0 42L-42 0Z" fill="#C1E1C1"></path></g><g transform="translate(250 232)"><path d="M0 -29L29 0L0 29L-29 0Z" fill="#C1E1C1"></path></g><g transform="translate(241 505)"><path d="M0 -27L27 0L0 27L-27 0Z" fill="#C1E1C1"></path></g><g transform="translate(576 144)"><path d="M0 -32L32 0L0 32L-32 0Z" fill="#C1E1C1"></path></g><g transform="translate(677 124)"><path d="M0 -33L33 0L0 33L-33 0Z" fill="#C1E1C1"></path></g><g transform="translate(793 538)"><path d="M0 -18L18 0L0 18L-18 0Z" fill="#C1E1C1"></path></g><g transform="translate(604 389)"><path d="M0 -22L22 0L0 22L-22 0Z" fill="#C1E1C1"></path></g><g transform="translate(948 469)"><path d="M0 -43L43 0L0 43L-43 0Z" fill="#C1E1C1"></path></g><g transform="translate(16 512)"><path d="M0 -47L47 0L0 47L-47 0Z" fill="#C1E1C1"></path></g><g transform="translate(13 362)"><path d="M0 -34L34 0L0 34L-34 0Z" fill="#C1E1C1"></path></g><g transform="translate(930 280)"><path d="M0 -44L44 0L0 44L-44 0Z" fill="#C1E1C1"></path></g><g transform="translate(391 490)"><path d="M0 -24L24 0L0 24L-24 0Z" fill="#C1E1C1"></path></g><g transform="translate(742 439)"><path d="M0 -39L39 0L0 39L-39 0Z" fill="#C1E1C1"></path></g><g transform="translate(805 331)"><path d="M0 -44L44 0L0 44L-44 0Z" fill="#C1E1C1"></path></g><g transform="translate(191 117)"><path d="M0 -26L26 0L0 26L-26 0Z" fill="#C1E1C1"></path></g><g transform="translate(475 46)"><path d="M0 -31L31 0L0 31L-31 0Z" fill="#C1E1C1"></path></g><g transform="translate(323 304)"><path d="M0 -19L19 0L0 19L-19 0Z" fill="#C1E1C1"></path></g><g transform="translate(7 128)"><path d="M0 -34L34 0L0 34L-34 0Z" fill="#C1E1C1"></path></g><g transform="translate(349 123)"><path d="M0 -41L41 0L0 41L-41 0Z" fill="#C1E1C1"></path></g><g transform="translate(838 97)"><path d="M0 -44L44 0L0 44L-44 0Z" fill="#C1E1C1"></path></g><g transform="translate(562 261)"><path d="M0 -33L33 0L0 33L-33 0Z" fill="#C1E1C1"></path></g><g transform="translate(428 258)"><path d="M0 -34L34 0L0 34L-34 0Z" fill="#C1E1C1"></path></g><g transform="translate(499 452)"><path d="M0 -29L29 0L0 29L-29 0Z" fill="#C1E1C1"></path></g><g transform="translate(131 421)"><path d="M0 -28L28 0L0 28L-28 0Z" fill="#C1E1C1"></path></g><g transform="translate(600 497)"><path d="M0 -41L41 0L0 41L-41 0Z" fill="#C1E1C1"></path></g><g transform="translate(571 4)"><path d="M0 -21L21 0L0 21L-21 0Z" fill="#C1E1C1"></path></g><g transform="translate(258 394)"><path d="M0 -21L21 0L0 21L-21 0Z" fill="#C1E1C1"></path></g><g transform="translate(695 3)"><path d="M0 -44L44 0L0 44L-44 0Z" fill="#C1E1C1"></path></g><g transform="translate(410 364)"><path d="M0 -38L38 0L0 38L-38 0Z" fill="#C1E1C1"></path></g><g transform="translate(856 210)"><path d="M0 -36L36 0L0 36L-36 0Z" fill="#C1E1C1"></path></g><g transform="translate(937 60)"><path d="M0 -34L34 0L0 34L-34 0Z" fill="#C1E1C1"></path></g><g transform="translate(469 164)"><path d="M0 -37L37 0L0 37L-37 0Z" fill="#C1E1C1"></path></g><g transform="translate(109 193)"><path d="M0 -37L37 0L0 37L-37 0Z" fill="#C1E1C1"></path></g><g transform="translate(6 233)"><path d="M0 -47L47 0L0 47L-47 0Z" fill="#C1E1C1"></path></g><g transform="translate(843 434)"><path d="M0 -28L28 0L0 28L-28 0Z" fill="#C1E1C1"></path></g></g></svg>