<svg id="visual" viewBox="0 0 960 540" width="960" height="540" xmlns="http://www.w3.org/2000/svg" xmlns:xlink="http://www.w3.org/1999/xlink" version="1.1"><rect x="0" y="0" width="960" height="540" fill="#007562"></rect><path d="M0 278L26.7 281.8C53.3 285.7 106.7 293.3 160 288.5C213.3 283.7 266.7 266.3 320 261.7C373.3 257 426.7 265 480 279.5C533.3 294 586.7 315 640 311.7C693.3 308.3 746.7 280.7 800 270.8C853.3 261 906.7 269 933.3 273L960 277L960 541L933.3 541C906.7 541 853.3 541 800 541C746.7 541 693.3 541 640 541C586.7 541 533.3 541 480 541C426.7 541 373.3 541 320 541C266.7 541 213.3 541 160 541C106.7 541 53.3 541 26.7 541L0 541Z" fill="#FFBA5B" stroke-linecap="round" stroke-linejoin="miter"></path></svg>